<svg width="50" height="50" viewBox="0 0 50 50" fill="none" xmlns="http://www.w3.org/2000/svg">
<path d="M33.3333 16.6667C36.6485 16.6667 39.8279 17.9836 42.1722 20.3279C44.5164 22.6721 45.8333 25.8515 45.8333 29.1667V43.75H37.5V29.1667C37.5 28.0616 37.061 27.0018 36.2796 26.2204C35.4982 25.439 34.4384 25 33.3333 25C32.2282 25 31.1684 25.439 30.387 26.2204C29.6056 27.0018 29.1666 28.0616 29.1666 29.1667V43.75H20.8333V29.1667C20.8333 25.8515 22.1503 22.6721 24.4945 20.3279C26.8387 17.9836 30.0181 16.6667 33.3333 16.6667V16.6667Z" stroke="#303030" stroke-width="2.08333" stroke-linecap="round" stroke-linejoin="round"/>
<path d="M12.5 18.75H4.16669V43.75H12.5V18.75Z" stroke="#303030" stroke-width="2.08333" stroke-linecap="round" stroke-linejoin="round"/>
<path d="M8.33335 12.5C10.6345 12.5 12.5 10.6345 12.5 8.33335C12.5 6.03217 10.6345 4.16669 8.33335 4.16669C6.03217 4.16669 4.16669 6.03217 4.16669 8.33335C4.16669 10.6345 6.03217 12.5 8.33335 12.5Z" stroke="#303030" stroke-width="2.08333" stroke-linecap="round" stroke-linejoin="round"/>
</svg>
