<svg width="50" height="50" viewBox="0 0 50 50" fill="none" xmlns="http://www.w3.org/2000/svg">
<path d="M48.1986 35.4451V41.7678C48.2012 42.3547 48.0687 42.9357 47.8095 43.4735C47.5503 44.0113 47.1702 44.4941 46.6935 44.8909C46.2168 45.2877 45.654 45.5898 45.0411 45.7778C44.4283 45.9659 43.7789 46.0357 43.1346 45.9829C35.9866 45.2782 29.1204 43.0621 23.0878 39.5127C17.4752 36.2769 12.7167 31.9595 9.15023 26.8673C5.22444 21.3691 2.78134 15.1092 2.01885 8.5947C1.96081 8.01188 2.03715 7.42449 2.24302 6.86992C2.44889 6.31534 2.77978 5.80573 3.21462 5.37354C3.64946 4.94134 4.17872 4.59603 4.76871 4.35959C5.3587 4.12315 5.99649 4.00076 6.64147 4.0002H13.6102C14.7376 3.99014 15.8305 4.35233 16.6852 5.01928C17.54 5.68623 18.0983 6.61242 18.2561 7.62522C18.5502 9.64862 19.0957 11.6353 19.8821 13.5475C20.1947 14.3018 20.2623 15.1216 20.077 15.9098C19.8918 16.698 19.4614 17.4214 18.8368 17.9944L15.8867 20.671C19.1935 25.9474 24.0087 30.3162 29.8242 33.3164L32.7744 30.6398C33.4059 30.0732 34.2033 29.6827 35.072 29.5146C35.9407 29.3465 36.8443 29.4079 37.6757 29.6914C39.7832 30.4049 41.973 30.8998 44.2031 31.1667C45.3315 31.3111 46.3621 31.8268 47.0987 32.6157C47.8354 33.4045 48.2268 34.4115 48.1986 35.4451Z" stroke="#303030" stroke-width="1.806" stroke-linecap="round" stroke-linejoin="round"/>
</svg>
